<?xml version="1.0" encoding="utf-8"?>
<!-- Generator: Adobe Illustrator 16.0.0, SVG Export Plug-In . SVG Version: 6.00 Build 0)  -->
<!DOCTYPE svg PUBLIC "-//W3C//DTD SVG 1.1//EN" "http://www.w3.org/Graphics/SVG/1.1/DTD/svg11.dtd">
<svg version="1.1" id="Layer_1" xmlns="http://www.w3.org/2000/svg" xmlns:xlink="http://www.w3.org/1999/xlink" x="0px" y="0px"
	 width="60px" height="60px" viewBox="0 0 60 60" enable-background="new 0 0 60 60" xml:space="preserve">
<g>
	<g>
		<g>
			<path fill="#FFFFFF" d="M47.737,22.253c-3.449-2.049-7.497-2.093-10.641-0.204c-0.004,0.002-0.006,0.002-0.009,0.003
				c-0.042,0.022-0.083,0.043-0.125,0.063c-0.242-0.669-0.498-1.112-0.556-1.209c-2.069-4.062-6.951-6.229-11.201-6.003
				c-4.091,0.215-8.702,2.745-9.62,9.16c-3.071,0.464-8.92,2.368-8.875,10.127c0.001,0.346,0.016,0.688,0.041,1.02
				c0.076,0.973,0.252,1.901,0.525,2.76c0.267,0.833,0.626,1.613,1.072,2.318c0.431,0.684,0.948,1.303,1.536,1.845
				c0.571,0.524,1.21,0.979,1.904,1.348c0.678,0.362,1.411,0.646,2.175,0.843c0.755,0.194,1.548,0.306,2.353,0.331
				c1.622,0.055,3.036-0.426,4.404-0.887c0.485-0.164,0.99-0.334,1.493-0.476c1.065-0.302,2.169-0.543,3.282-0.72
				c1.02-0.16,2.074-0.271,3.133-0.324c0.958-0.05,1.939-0.054,2.915-0.013c0.872,0.037,1.758,0.107,2.635,0.216
				c0.764,0.093,1.532,0.213,2.285,0.358c0.636,0.122,1.263,0.264,1.871,0.418c0.476,0.123,0.94,0.253,1.382,0.392
				c0.483,0.151,0.852,0.551,0.962,1.044c0.029,0.137,0.06,0.281,0.089,0.436c-1.062-0.574-3.447-1.516-7.875-1.707
				c-0.303-0.017-0.552,0.22-0.564,0.52c-0.014,0.3,0.217,0.552,0.519,0.565c5.858,0.255,7.877,1.865,7.912,1.895
				c0.065,0.055,0.14,0.085,0.216,0.104c0.092,0.845,0.129,1.794,0.032,2.772c-0.049,0.492-0.328,0.915-0.771,1.16
				c-0.451,0.25-0.995,0.265-1.456,0.035c-7.514-3.722-11.915-1.413-15.127,0.274c-2.112,1.109-3.271,1.646-4.507,0.774
				c-0.768-0.538-0.409-2.625-0.092-4.466l0.052-0.305c0.066-0.381-0.191-0.743-0.572-0.81c-0.383-0.064-0.744,0.192-0.809,0.574
				l-0.052,0.302c-0.405,2.362-0.826,4.803,0.667,5.853c0.697,0.49,1.39,0.687,2.079,0.687c1.281,0,2.56-0.673,3.886-1.368
				c3.11-1.633,6.979-3.666,13.853-0.259c0.873,0.434,1.905,0.408,2.76-0.066c0.85-0.471,1.392-1.292,1.487-2.251
				c0.191-1.96-0.089-3.814-0.357-5.023c-0.217-0.982-0.951-1.778-1.912-2.078c-0.229-0.071-0.463-0.141-0.703-0.209
				c2.206-1.584,2.527-4.638,2.315-6.338c-0.05-0.384-0.397-0.655-0.781-0.608c-0.385,0.047-0.657,0.398-0.61,0.781
				c0.007,0.055,0.054,0.465,0.033,1.043l-2.604,4.432c-0.168,0.063-0.348,0.114-0.536,0.159c-0.173-0.036-0.345-0.074-0.518-0.106
				c-0.593-0.115-1.195-0.21-1.798-0.292c1.732-2.438,0.563-4.564,0.508-4.662c-0.189-0.334-0.611-0.448-0.948-0.265
				c-0.337,0.189-0.456,0.614-0.274,0.953c0.022,0.039,0.308,0.584,0.245,1.394l-0.163,0.774c-0.158,0.469-0.442,0.983-0.938,1.519
				c-0.026,0.03-0.05,0.063-0.072,0.096c-0.563-0.052-1.129-0.094-1.687-0.116c-1.019-0.042-2.044-0.039-3.047,0.013
				c-1.107,0.056-2.209,0.17-3.278,0.341c-0.817,0.129-1.631,0.293-2.429,0.489c-0.048-0.015-0.098-0.024-0.149-0.028
				c-2.264-0.18-2.357-3.282-2.36-3.425c-0.007-0.385-0.316-0.686-0.712-0.686c-0.387,0.006-0.695,0.323-0.689,0.711
				c0.019,1.129,0.444,3.011,1.745,4.054c-0.137,0.046-0.277,0.091-0.41,0.136c-1.308,0.441-2.54,0.859-3.91,0.815
				c-0.703-0.023-1.393-0.121-2.049-0.289c-0.658-0.169-1.285-0.412-1.865-0.722c-0.588-0.313-1.131-0.698-1.613-1.143
				c-0.498-0.457-0.934-0.983-1.301-1.564c-0.382-0.603-0.69-1.273-0.92-1.992c-0.243-0.757-0.396-1.578-0.464-2.442
				c-0.022-0.297-0.035-0.608-0.037-0.921c-0.038-6.367,4.395-8.199,7.487-8.703c0.095,0.548,0.297,1.3,0.719,1.965
				c0.388,0.608,1.051,0.971,1.779,0.971l0,0c0.704,0,1.338-0.35,1.698-0.936c0.265-0.435,0.316-0.919,0.141-1.363
				c-0.303-0.77-1.246-1.387-2.945-1.928c0.709-4.709,3.769-7.647,8.289-7.886c4.197-0.226,9.096,2.163,10.402,6.551
				c-1.015,0.666-1.573,1.296-1.722,1.938c-0.104,0.449-0.011,0.886,0.274,1.264c0.326,0.434,0.828,0.674,1.356,0.674
				c0.169,0,0.341-0.023,0.511-0.074c0.742-0.221,1.256-0.852,1.308-1.611c0.035-0.521,0-1.02-0.072-1.482
				c2.759-1.935,6.505-1.993,9.684-0.104c3.737,2.22,5.483,6.348,4.669,11.043c-0.744,4.284-4.384,6.36-7.307,7.348
				c-0.366,0.124-0.563,0.521-0.439,0.887c0.124,0.367,0.521,0.564,0.888,0.44c3.282-1.109,7.378-3.473,8.239-8.437
				C54.151,28.513,51.024,24.207,47.737,22.253z"/>
			<path fill="#FFFFFF" d="M14.2,18.968c0.112,0.116,0.259,0.174,0.409,0.174c0.142,0,0.283-0.054,0.393-0.159
				c0.226-0.217,0.232-0.577,0.017-0.802l-4.097-4.247c-0.218-0.225-0.577-0.23-0.802-0.015c-0.226,0.218-0.231,0.577-0.015,0.802
				L14.2,18.968z"/>
			<path fill="#FFFFFF" d="M27.602,13.562c0.312,0,0.566-0.254,0.566-0.568V7.241c0-0.313-0.254-0.568-0.566-0.568
				c-0.314,0-0.567,0.254-0.567,0.568v5.753C27.034,13.308,27.288,13.562,27.602,13.562z"/>
			<path fill="#FFFFFF" d="M40.507,18.748c0.154,0,0.308-0.062,0.421-0.186l3.832-4.222c0.21-0.231,0.193-0.59-0.039-0.801
				c-0.231-0.21-0.591-0.193-0.801,0.039L40.087,17.8c-0.21,0.231-0.193,0.589,0.038,0.8C40.233,18.699,40.37,18.748,40.507,18.748z
				"/>
		</g>
	</g>
</g>
</svg>
